<mxfile host="app.diagrams.net" modified="2023-10-30T15:12:33.497Z" agent="Mozilla/5.0 (Macintosh; Intel Mac OS X 10_15_7) AppleWebKit/537.36 (KHTML, like Gecko) Chrome/118.0.0.0 Safari/537.36" etag="zcoVz8H2lSqWAZnwhYxh" version="21.7.2" type="github">
  <diagram name="Seite-1" id="fSJwJkvn0V0op_DiRfxZ">
    <mxGraphModel dx="1926" dy="714" grid="1" gridSize="10" guides="1" tooltips="1" connect="1" arrows="1" fold="1" page="1" pageScale="1" pageWidth="827" pageHeight="1169" math="0" shadow="0">
      <root>
        <mxCell id="0" />
        <mxCell id="1" parent="0" />
        <mxCell id="WdWt_RsJRczm0c6__bXc-12" style="edgeStyle=orthogonalEdgeStyle;rounded=0;orthogonalLoop=1;jettySize=auto;html=1;exitX=1;exitY=0.25;exitDx=0;exitDy=0;entryX=0;entryY=0.25;entryDx=0;entryDy=0;" edge="1" parent="1" source="VtIx3bEPgmUTo8Oyo8YW-1" target="VtIx3bEPgmUTo8Oyo8YW-6">
          <mxGeometry relative="1" as="geometry" />
        </mxCell>
        <mxCell id="WdWt_RsJRczm0c6__bXc-21" style="edgeStyle=orthogonalEdgeStyle;rounded=0;orthogonalLoop=1;jettySize=auto;html=1;exitX=0.75;exitY=1;exitDx=0;exitDy=0;entryX=0.25;entryY=1;entryDx=0;entryDy=0;" edge="1" parent="1" source="VtIx3bEPgmUTo8Oyo8YW-1" target="VtIx3bEPgmUTo8Oyo8YW-4">
          <mxGeometry relative="1" as="geometry">
            <Array as="points">
              <mxPoint x="145" y="490" />
              <mxPoint x="664" y="490" />
            </Array>
          </mxGeometry>
        </mxCell>
        <mxCell id="VtIx3bEPgmUTo8Oyo8YW-1" value="" style="rounded=0;whiteSpace=wrap;html=1;fillColor=#f5f5f5;fontColor=#333333;strokeColor=#666666;" parent="1" vertex="1">
          <mxGeometry x="-5" y="300" width="200" height="150" as="geometry" />
        </mxCell>
        <mxCell id="VtIx3bEPgmUTo8Oyo8YW-2" value="Coinbase Host System" style="text;html=1;align=center;verticalAlign=middle;resizable=0;points=[];autosize=1;strokeColor=none;fillColor=none;fontSize=18;" parent="1" vertex="1">
          <mxGeometry x="-20" y="268" width="210" height="40" as="geometry" />
        </mxCell>
        <mxCell id="VtIx3bEPgmUTo8Oyo8YW-4" value="" style="rounded=0;whiteSpace=wrap;html=1;fillColor=#f5f5f5;fontColor=#333333;strokeColor=#666666;" parent="1" vertex="1">
          <mxGeometry x="614" y="300" width="200" height="150" as="geometry" />
        </mxCell>
        <mxCell id="VtIx3bEPgmUTo8Oyo8YW-5" value="Prover Node &lt;br&gt;(Octorand)" style="text;html=1;align=center;verticalAlign=middle;resizable=0;points=[];autosize=1;strokeColor=none;fillColor=none;fontSize=18;" parent="1" vertex="1">
          <mxGeometry x="694" y="248" width="120" height="60" as="geometry" />
        </mxCell>
        <mxCell id="WdWt_RsJRczm0c6__bXc-9" style="edgeStyle=orthogonalEdgeStyle;rounded=0;orthogonalLoop=1;jettySize=auto;html=1;exitX=1;exitY=0.75;exitDx=0;exitDy=0;endArrow=none;endFill=0;" edge="1" parent="1" source="VtIx3bEPgmUTo8Oyo8YW-6">
          <mxGeometry relative="1" as="geometry">
            <mxPoint x="550" y="250" as="targetPoint" />
            <Array as="points">
              <mxPoint x="580" y="412" />
              <mxPoint x="580" y="250" />
            </Array>
          </mxGeometry>
        </mxCell>
        <mxCell id="VtIx3bEPgmUTo8Oyo8YW-6" value="" style="rounded=0;whiteSpace=wrap;html=1;fillColor=#f5f5f5;fontColor=#333333;strokeColor=#666666;" parent="1" vertex="1">
          <mxGeometry x="300" y="300" width="200" height="150" as="geometry" />
        </mxCell>
        <mxCell id="VtIx3bEPgmUTo8Oyo8YW-7" value="Sequencer Node &lt;br&gt;(Octorand)" style="text;html=1;align=center;verticalAlign=middle;resizable=0;points=[];autosize=1;strokeColor=none;fillColor=none;fontSize=18;" parent="1" vertex="1">
          <mxGeometry x="350" y="248" width="160" height="60" as="geometry" />
        </mxCell>
        <mxCell id="VtIx3bEPgmUTo8Oyo8YW-8" value="" style="rounded=0;whiteSpace=wrap;html=1;fillColor=#f5f5f5;fontColor=#333333;strokeColor=#666666;" parent="1" vertex="1">
          <mxGeometry x="295" y="80" width="200" height="150" as="geometry" />
        </mxCell>
        <mxCell id="VtIx3bEPgmUTo8Oyo8YW-9" value="Sequencer" style="rounded=1;whiteSpace=wrap;html=1;fontSize=18;fillColor=#fff2cc;strokeColor=#d6b656;" parent="1" vertex="1">
          <mxGeometry x="310" y="320" width="94" height="40" as="geometry" />
        </mxCell>
        <mxCell id="VtIx3bEPgmUTo8Oyo8YW-10" value="Pool DB" style="rounded=1;whiteSpace=wrap;html=1;fontSize=18;fillColor=#dae8fc;strokeColor=#6c8ebf;" parent="1" vertex="1">
          <mxGeometry x="310" y="400" width="84" height="30" as="geometry" />
        </mxCell>
        <mxCell id="VtIx3bEPgmUTo8Oyo8YW-12" value="State DB" style="rounded=1;whiteSpace=wrap;html=1;fontSize=18;fillColor=#dae8fc;strokeColor=#6c8ebf;" parent="1" vertex="1">
          <mxGeometry x="410" y="400" width="84" height="30" as="geometry" />
        </mxCell>
        <mxCell id="VtIx3bEPgmUTo8Oyo8YW-13" value="..." style="rounded=1;whiteSpace=wrap;html=1;fontSize=18;" parent="1" vertex="1">
          <mxGeometry x="411" y="325" width="84" height="30" as="geometry" />
        </mxCell>
        <mxCell id="WdWt_RsJRczm0c6__bXc-3" style="edgeStyle=orthogonalEdgeStyle;rounded=0;orthogonalLoop=1;jettySize=auto;html=1;exitX=0.5;exitY=0;exitDx=0;exitDy=0;entryX=1;entryY=0.5;entryDx=0;entryDy=0;" edge="1" parent="1" source="VtIx3bEPgmUTo8Oyo8YW-14" target="WdWt_RsJRczm0c6__bXc-2">
          <mxGeometry relative="1" as="geometry" />
        </mxCell>
        <mxCell id="VtIx3bEPgmUTo8Oyo8YW-14" value="Prover Server" style="rounded=1;whiteSpace=wrap;html=1;fontSize=18;fillColor=#f8cecc;strokeColor=#b85450;" parent="1" vertex="1">
          <mxGeometry x="630" y="325" width="94" height="40" as="geometry" />
        </mxCell>
        <mxCell id="WdWt_RsJRczm0c6__bXc-1" value="Ethereum Nodes" style="text;html=1;align=center;verticalAlign=middle;resizable=0;points=[];autosize=1;strokeColor=none;fillColor=none;fontSize=18;" vertex="1" parent="1">
          <mxGeometry x="290" y="50" width="160" height="40" as="geometry" />
        </mxCell>
        <mxCell id="WdWt_RsJRczm0c6__bXc-8" style="edgeStyle=orthogonalEdgeStyle;rounded=0;orthogonalLoop=1;jettySize=auto;html=1;exitX=0.75;exitY=1;exitDx=0;exitDy=0;entryX=0;entryY=0.25;entryDx=0;entryDy=0;" edge="1" parent="1" source="WdWt_RsJRczm0c6__bXc-2" target="VtIx3bEPgmUTo8Oyo8YW-14">
          <mxGeometry relative="1" as="geometry">
            <Array as="points">
              <mxPoint x="438" y="250" />
              <mxPoint x="630" y="250" />
            </Array>
          </mxGeometry>
        </mxCell>
        <mxCell id="WdWt_RsJRczm0c6__bXc-2" value="PolgyonZkEvm.sol" style="rounded=1;whiteSpace=wrap;html=1;fontSize=18;fillColor=#d5e8d4;strokeColor=#82b366;" vertex="1" parent="1">
          <mxGeometry x="308" y="135" width="174" height="40" as="geometry" />
        </mxCell>
        <mxCell id="WdWt_RsJRczm0c6__bXc-4" value="Verify Batches" style="text;html=1;align=center;verticalAlign=middle;resizable=0;points=[];autosize=1;strokeColor=none;fillColor=none;" vertex="1" parent="1">
          <mxGeometry x="570" y="128" width="100" height="30" as="geometry" />
        </mxCell>
        <mxCell id="WdWt_RsJRczm0c6__bXc-6" value="" style="endArrow=classic;html=1;rounded=0;exitX=0.25;exitY=0;exitDx=0;exitDy=0;entryX=0.142;entryY=1.071;entryDx=0;entryDy=0;entryPerimeter=0;" edge="1" parent="1" source="VtIx3bEPgmUTo8Oyo8YW-9" target="WdWt_RsJRczm0c6__bXc-2">
          <mxGeometry width="50" height="50" relative="1" as="geometry">
            <mxPoint x="280" y="290" as="sourcePoint" />
            <mxPoint x="330" y="240" as="targetPoint" />
          </mxGeometry>
        </mxCell>
        <mxCell id="WdWt_RsJRczm0c6__bXc-7" value="Sequence Batches" style="text;html=1;align=center;verticalAlign=middle;resizable=0;points=[];autosize=1;strokeColor=none;fillColor=none;" vertex="1" parent="1">
          <mxGeometry x="220" y="248" width="120" height="30" as="geometry" />
        </mxCell>
        <mxCell id="WdWt_RsJRczm0c6__bXc-10" value="Get Batch Proof Data" style="text;html=1;align=center;verticalAlign=middle;resizable=0;points=[];autosize=1;strokeColor=none;fillColor=none;" vertex="1" parent="1">
          <mxGeometry x="490" y="218" width="140" height="30" as="geometry" />
        </mxCell>
        <mxCell id="WdWt_RsJRczm0c6__bXc-11" value="Experiment Data&lt;br&gt;" style="rounded=1;whiteSpace=wrap;html=1;fillColor=#dae8fc;strokeColor=#6c8ebf;" vertex="1" parent="1">
          <mxGeometry x="25" y="310" width="120" height="60" as="geometry" />
        </mxCell>
        <mxCell id="WdWt_RsJRczm0c6__bXc-13" value="Feed TXs" style="text;html=1;align=center;verticalAlign=middle;resizable=0;points=[];autosize=1;strokeColor=none;fillColor=none;" vertex="1" parent="1">
          <mxGeometry x="210" y="308" width="80" height="30" as="geometry" />
        </mxCell>
        <mxCell id="WdWt_RsJRczm0c6__bXc-16" value="Start Sequencer" style="text;html=1;align=center;verticalAlign=middle;resizable=0;points=[];autosize=1;strokeColor=none;fillColor=none;" vertex="1" parent="1">
          <mxGeometry x="195" y="335" width="110" height="30" as="geometry" />
        </mxCell>
        <mxCell id="WdWt_RsJRczm0c6__bXc-18" value="" style="shape=image;verticalLabelPosition=bottom;labelBackgroundColor=default;verticalAlign=top;aspect=fixed;imageAspect=0;image=https://logos-download.com/wp-content/uploads/2016/09/Docker_logo.png;" vertex="1" parent="1">
          <mxGeometry x="363" y="528" width="41" height="34.41" as="geometry" />
        </mxCell>
        <mxCell id="WdWt_RsJRczm0c6__bXc-20" value="Serialized Proof Files" style="shape=cylinder3;whiteSpace=wrap;html=1;boundedLbl=1;backgroundOutline=1;size=15;fillColor=#dae8fc;strokeColor=#6c8ebf;" vertex="1" parent="1">
          <mxGeometry x="630" y="370" width="130" height="70" as="geometry" />
        </mxCell>
        <mxCell id="WdWt_RsJRczm0c6__bXc-22" value="Watch For Incoming Proofs" style="text;html=1;align=center;verticalAlign=middle;resizable=0;points=[];autosize=1;strokeColor=none;fillColor=none;" vertex="1" parent="1">
          <mxGeometry x="305" y="468" width="170" height="30" as="geometry" />
        </mxCell>
        <mxCell id="WdWt_RsJRczm0c6__bXc-24" value="" style="endArrow=none;html=1;rounded=0;exitX=0.633;exitY=1.02;exitDx=0;exitDy=0;exitPerimeter=0;endFill=0;" edge="1" parent="1" source="VtIx3bEPgmUTo8Oyo8YW-1">
          <mxGeometry width="50" height="50" relative="1" as="geometry">
            <mxPoint x="340" y="410" as="sourcePoint" />
            <mxPoint x="720" y="520" as="targetPoint" />
            <Array as="points">
              <mxPoint x="122" y="520" />
            </Array>
          </mxGeometry>
        </mxCell>
        <mxCell id="WdWt_RsJRczm0c6__bXc-25" value="" style="endArrow=classic;html=1;rounded=0;" edge="1" parent="1">
          <mxGeometry width="50" height="50" relative="1" as="geometry">
            <mxPoint x="720" y="520" as="sourcePoint" />
            <mxPoint x="720" y="451" as="targetPoint" />
          </mxGeometry>
        </mxCell>
        <mxCell id="WdWt_RsJRczm0c6__bXc-26" value="Start Experiment" style="text;html=1;strokeColor=none;fillColor=none;align=center;verticalAlign=middle;whiteSpace=wrap;rounded=0;" vertex="1" parent="1">
          <mxGeometry x="24" y="380" width="105" height="30" as="geometry" />
        </mxCell>
        <mxCell id="WdWt_RsJRczm0c6__bXc-27" value="Watch for Finished Proofs" style="text;html=1;strokeColor=none;fillColor=none;align=center;verticalAlign=middle;whiteSpace=wrap;rounded=0;" vertex="1" parent="1">
          <mxGeometry x="21.5" y="400" width="155" height="30" as="geometry" />
        </mxCell>
        <mxCell id="WdWt_RsJRczm0c6__bXc-28" value="Collect Experiment Data" style="text;html=1;strokeColor=none;fillColor=none;align=center;verticalAlign=middle;whiteSpace=wrap;rounded=0;" vertex="1" parent="1">
          <mxGeometry x="17.5" y="420" width="155" height="30" as="geometry" />
        </mxCell>
        <mxCell id="WdWt_RsJRczm0c6__bXc-29" value="Collect Docker Stats of Memory and CPU" style="text;html=1;align=center;verticalAlign=middle;resizable=0;points=[];autosize=1;strokeColor=none;fillColor=none;" vertex="1" parent="1">
          <mxGeometry x="270" y="498" width="240" height="30" as="geometry" />
        </mxCell>
      </root>
    </mxGraphModel>
  </diagram>
</mxfile>
